/* XPM */
static char *_40c6800f4f6493180691793a2544760[] = {
/* columns rows colors chars-per-pixel */
"16 16 111 2 ",
"   c #A2660B",
".  c #A3670D",
"X  c #B4740C",
"o  c #B5740C",
"O  c #BE7C0E",
"+  c #BE7C0F",
"@  c #A46810",
"#  c #A46911",
"$  c #AE711A",
"%  c #B0751C",
"&  c #C97409",
"*  c #D27807",
"=  c #D37908",
"-  c #D47A08",
";  c #A67F50",
":  c #BE8017",
">  c #BE8218",
",  c #D8800A",
"<  c #D9810A",
"1  c #DB830B",
"2  c #DD8309",
"3  c #DB840B",
"4  c #DE8509",
"5  c #DF8709",
"6  c #DC840B",
"7  c #DE890D",
"8  c #DE910F",
"9  c #CD8711",
"0  c #CE8711",
"q  c #C3891A",
"w  c #C78F1C",
"e  c #D68C14",
"r  c #D88E13",
"t  c #DF8F10",
"y  c #DC9A1E",
"u  c #E28809",
"i  c #E6940D",
"p  c #E9980F",
"a  c #E19211",
"s  c #E19410",
"d  c #DAA11C",
"f  c #D89923",
"g  c #C3913C",
"h  c #C4913C",
"j  c #CFA123",
"k  c #CFA124",
"l  c #DEB025",
"z  c #DDB53F",
"x  c #DEB63F",
"c  c #E3AA2A",
"v  c #E0AB2D",
"b  c #E1B325",
"n  c #E7BE35",
"m  c #EBC42B",
"M  c #ECC62C",
"N  c #E7C038",
"B  c #E9CD3D",
"V  c #EBCE3D",
"C  c #FDC83C",
"Z  c #BC8E4C",
"A  c #A78052",
"S  c #B49B7D",
"D  c #C79952",
"F  c #D09C55",
"G  c #C8A54B",
"H  c #C9A54B",
"J  c #C9A556",
"K  c #CEA950",
"L  c #CBA759",
"P  c #D8A159",
"I  c #C09F66",
"U  c #C2A26B",
"Y  c #FDCA42",
"T  c #FDD75B",
"R  c #FDD85D",
"E  c #FAD769",
"W  c #EFC277",
"Q  c #E2C37F",
"!  c #E4C27E",
"~  c #F1C97E",
"^  c #FBDB73",
"/  c #FCEC7D",
"(  c #FCEC7F",
")  c #B79F80",
"_  c #C7B49E",
"`  c #C9B8A2",
"'  c #D0BFAD",
"]  c #E2C580",
"[  c #E5C582",
"{  c #E8D281",
"}  c #E9D485",
"|  c #E5D294",
" . c #E5D396",
".. c #FEF398",
"X. c #FEF49C",
"o. c #D1C1AE",
"O. c #F7E4A2",
"+. c #F7E6A4",
"@. c #F1E1AD",
"#. c #F3E1AD",
"$. c #F9E8AA",
"%. c #FAEBAF",
"&. c #FFF3A9",
"*. c #FFF5AF",
"=. c #FAEFCD",
"-. c #FFFAC8",
";. c #FFFAC9",
":. c #FAF1D0",
">. c #FFFDD2",
",. c #FFFEDC",
"<. c None",
/* pixels */
"<.<.<.<.<.<.<.<.<.<.<.<.<.<.<.<.",
"<.<.<.<.<.<.<.<.<.<.<.<.<.<.<.<.",
"<.<.<.<.<.<.C T R Y <.<.<.<.<.<.",
"<.<.<.<.W E &.-.-.*.^ ~ <.<.<.<.",
"<.<.<.P =.$.O.Q ] +.%.:.F <.<.<.",
"<.<.[ #.,.>.| H H | >.,.#.Q <.<.",
"<.<.D } X.( x V V z ( ..{ Z <.<.",
"<.<.* c n j d m M d k N v & <.<.",
"<.<.u y $ > w l l q : % f 5 <.<.",
"<.<.6 r ; U L K K J I A e 2 <.<.",
"<.<.<.i g ) ` o.o._ S g p <.<.<.",
"<.<.<.1 8 X . @ @   X s 3 <.<.<.",
"<.<.<.<.1 t 0 O + 0 a 1 <.<.<.<.",
"<.<.<.<.<.= 1 7 7 6 - <.<.<.<.<.",
"<.<.<.<.<.<.<.<.<.<.<.<.<.<.<.<.",
"<.<.<.<.<.<.<.<.<.<.<.<.<.<.<.<."
};
