/* XPM */
static char *f76dd2769d6f46d9dd7f676dbc053353[] = {
/* columns rows colors chars-per-pixel */
"32 32 227 2 ",
"   c #7E4A24",
".  c #873D0B",
"X  c #965915",
"o  c #995C15",
"O  c #935519",
"+  c #995E19",
"@  c #A95C04",
"#  c #9F6105",
"$  c #9F6511",
"%  c #A36406",
"&  c #A36508",
"*  c #A86B0C",
"=  c #B66002",
"-  c #BD6D0C",
";  c #A36214",
":  c #A46816",
">  c #A2601B",
",  c #A56C19",
"<  c #B26F16",
"1  c #AC7419",
"2  c #BE7F13",
"3  c #B37418",
"4  c #B47C1A",
"5  c #BA7C1D",
"6  c #986523",
"7  c #9B6926",
"8  c #97682F",
"9  c #966934",
"0  c #AA7724",
"q  c #A57A30",
"w  c #A87C30",
"e  c #C46A07",
"r  c #CB6F07",
"t  c #CB6F08",
"y  c #CE7207",
"u  c #CE7108",
"i  c #D27507",
"p  c #D47907",
"a  c #DA7B06",
"s  c #D17308",
"d  c #D57C08",
"f  c #A17741",
"g  c #A67D48",
"h  c #BF8013",
"j  c #BD851B",
"k  c #BF891A",
"l  c #DB8107",
"z  c #DC8409",
"x  c #DF8A0B",
"c  c #C5811A",
"v  c #C28A1B",
"b  c #D18F17",
"n  c #D59216",
"m  c #DC9917",
"M  c #DA951A",
"N  c #D69B1B",
"B  c #E38D0A",
"V  c #E5930E",
"C  c #E8920B",
"Z  c #ED9C0E",
"A  c #E49612",
"S  c #EA9710",
"D  c #E49C16",
"F  c #EC9D13",
"G  c #E39B18",
"H  c #D7A21F",
"J  c #E7A016",
"K  c #EDA014",
"L  c #E3A61E",
"P  c #F2A314",
"I  c #F7A913",
"U  c #FAAB12",
"Y  c #EFBC1F",
"T  c #FBB519",
"R  c #FDBD1C",
"E  c #C18623",
"W  c #C79322",
"Q  c #CE9E25",
"!  c #C8912A",
"~  c #CF992B",
"^  c #D39B24",
"/  c #DB9A22",
"(  c #D29B29",
")  c #C79A3E",
"_  c #D8973D",
"`  c #E49A30",
"'  c #D3A124",
"]  c #DAA122",
"[  c #DBBC3D",
"{  c #E2A420",
"}  c #E1AD23",
"|  c #EAAE23",
" . c #E5B325",
".. c #EFB626",
"X. c #E9B927",
"o. c #E9B12D",
"O. c #E4BD2B",
"+. c #EEBD29",
"@. c #FDBE23",
"#. c #E9A235",
"$. c #ECB934",
"%. c #E9C127",
"&. c #E7C42F",
"*. c #EEC32D",
"=. c #FDC223",
"-. c #F1CB2C",
";. c #F7D62E",
":. c #F9D82E",
">. c #EFCF39",
",. c #F1C033",
"<. c #F6CF34",
"1. c #F4C738",
"2. c #EFD03A",
"3. c #F8D130",
"4. c #FBD038",
"5. c #FEE336",
"6. c #AB834B",
"7. c #B88E4C",
"8. c #B9914F",
"9. c #BE9A4A",
"0. c #A58154",
"q. c #A7855A",
"w. c #AB8B64",
"e. c #AB8D69",
"r. c #B19169",
"t. c #AE967A",
"y. c #B99D7C",
"u. c #CC9042",
"i. c #CC9F43",
"p. c #C2934A",
"a. c #C39D4D",
"s. c #D19544",
"d. c #C69F57",
"f. c #C7A151",
"g. c #D8A052",
"h. c #D4A55B",
"j. c #DEA658",
"k. c #D2AB5F",
"l. c #E3AC5B",
"z. c #D8BF7A",
"x. c #E8AF60",
"c. c #E4B66C",
"v. c #ECBA6C",
"b. c #E4BF74",
"n. c #F3CD42",
"m. c #F6D040",
"M. c #FED441",
"N. c #F8DB46",
"B. c #FCDB4C",
"V. c #ECD356",
"C. c #FFDE56",
"Z. c #FDE740",
"A. c #FCE841",
"S. c #F9E44D",
"D. c #F8E050",
"F. c #FFE05D",
"G. c #F3D660",
"H. c #F4D66F",
"J. c #E5C176",
"K. c #F7E465",
"L. c #FFE065",
"P. c #F7E568",
"I. c #FDE46B",
"U. c #F7E275",
"Y. c #FBEC7C",
"T. c #AE9C8A",
"R. c #BDA484",
"E. c #B2A08E",
"W. c #B6A596",
"Q. c #BAB1A8",
"!. c #BEB7B0",
"~. c #BDBAB9",
"^. c #C2AB90",
"/. c #C6B095",
"(. c #CAB49B",
"). c #C0BFBF",
"_. c #DBC480",
"`. c #E6CA86",
"'. c #E7CC89",
"]. c #F2CC83",
"[. c #F1D185",
"{. c #F6DC81",
"}. c #F2D58B",
"|. c #F6D693",
" X c #F7DB96",
".X c #F5DE9C",
"XX c #F8DF9F",
"oX c #FEF085",
"OX c #F7E095",
"+X c #F5E19B",
"@X c #F8E19D",
"#X c #F9EA9A",
"$X c #FFF397",
"%X c #FFF498",
"&X c #F3DEA2",
"*X c #EFE5A3",
"=X c #EEE5AC",
"-X c #FFF4A7",
";X c #F9F0AB",
":X c #FEF8AF",
">X c #F0E5B5",
",X c #F8E5B0",
"<X c #F8E9B7",
"1X c #F9E7BE",
"2X c #F0E8B9",
"3X c #FBF5B7",
"4X c #FFF8B1",
"5X c #FAF6BB",
"6X c #FFFBBB",
"7X c #C9C6C3",
"8X c #CBC9C6",
"9X c #FBEDC2",
"0X c #FCF2C7",
"qX c #FFFCC4",
"wX c #F8F6CD",
"eX c #FFFDCA",
"rX c #FCF4D7",
"tX c #FEFDD3",
"yX c #FDF5D9",
"uX c #FFFDDC",
"iX c #DDDFE1",
"pX c #E9ECEF",
"aX c #FFFEE3",
"sX c #FFFFEE",
"dX c #EFF2F5",
"fX c #F1F3F6",
"gX c None",
/* pixels */
"gXgXgXgXgXgXgXgXgXgXgXgXgXgXgXgXgXgXgXgXgXgXgXgXgXgXgXgXgXgXgXgX",
"gXgXgXgXgXgXgXgXgXgXgXgXgXgXgXgXgXgXgXgXgXgXgXgXgXgXgXgXgXgXgXgX",
"gXgXgXgXgXgXgXgXgXgXgXgXgXgXgXgXgXgXgXgXgXgXgXgXgXgXgXgXgXgXgXgX",
"gXgXgXgXgXgXgXgXgXgXgXgXgXgXgXgXgXgXgXgXgXgXgXgXgXgXgXgXgXgXgXgX",
"gXgXgXgXgXgXgXgXgXgXgXgXgXgXgXT T gXgXgXgXgXgXgXgXgXgXgXgXgXgXgX",
"gXgXgXgXgXgXgXgXgXgXgXU R 4.C.I.I.F.M.=.U gXgXgXgXgXgXgXgXgXgXgX",
"gXgXgXgXgXgXgXgXx.` T B.$XqXuXaXaXuXeX-XL.@.#.v.gXgXgXgXgXgXgXgX",
"gXgXgXgXgXgXgXgX9X].H.6XqXeXeXtXtXtXeXeXqXU.|.9XgXgXgXgXgXgXgXgX",
"gXgXgXgXgXgXgXs.yXyX[.#X#XOX}..X+X}.+X#X#X}.aXyXu.gXgXgXgXgXgXgX",
"gXgXgXgXgXgX= g.aXsX9X X.X&Xb.p.p.J.&X.X.X0XsXaXh.@ gXgXgXgXgXgX",
"gXgXgXgXgXl.c.,XaXaXaXuXtX=X8.a.9.8.=XuXuXaXaXaX1Xc.j.gXgXgXgXgX",
"gXgXgXs.`.>XwXtXuXtXtXeX;Xa.w V.V.q f.;XqXtXtXtXtXwX2X'.s.gXgXgX",
"gXgXgXgXk._.=X3X6X6X4X%XG.0 [ S.S.[ 0 G.$X:X6X6X3X*Xz.d.gXgXgXgX",
"gXgXgXgXgX> i.U.oXY.P.D.4.' 2.5.A.2.Q >.D.P.Y.Y.I.i.O . gXgXgXgX",
"gXgXgXgXs i c n.N.2.&.%.+.L O.5.5.O.{ +.%.&.2.N.n.5 - e gXgXgXgX",
"gXgXgXgXp B M ,.+.N 1 k N m H ;.:.H m N k 1 ' +.1./ C a gXgXgXgX",
"gXgXgXgXp C G o./ o o 1 , 3 4 *.-.j 3 : : ; + ( $./ B a gXgXgXgX",
"gXgXgXgXi C m ~ O ; L +.} ' Q 3.3.' W ] | { < O ! M B a gXgXgXgX",
"gXgXgXgXs B Z 3   8 0 v H }  .X.X. .} H v 1 8   < A B s gXgXgXgX",
"gXgXgXgXgXa Z K 6.~.!.W.t.e.q.0.0.0.w.t.E.Q.~.6.K F z s gXgXgXgX",
"gXgXgXgXgXp V I E T.8XiXpXdXdXdXdXdXdXpXiX7XT.E U S a gXgXgXgXgX",
"gXgXgXgXgXu l F D : 7 g r.R./.(.(.^.y.w.q 6 $ J P x u gXgXgXgXgX",
"gXgXgXgXgXgXy x P n & % % # # & # # # % % & n P V p gXgXgXgXgXgX",
"gXgXgXgXgXgXgXi V P n & & % * % & * % % * b P A d r gXgXgXgXgXgX",
"gXgXgXgXgXgXgXgXp x F G c & & & & & * 2 G K V d u gXgXgXgXgXgXgX",
"gXgXgXgXgXgXgXgXgXi z A K D n b b M D K S x p u gXgXgXgXgXgXgXgX",
"gXgXgXgXgXgXgXgXgXgXy p z B S S S S V z d y gXgXgXgXgXgXgXgXgXgX",
"gXgXgXgXgXgXgXgXgXgXgXgXr y i p p i y r gXgXgXgXgXgXgXgXgXgXgXgX",
"gXgXgXgXgXgXgXgXgXgXgXgXgXgXgXgXgXgXgXgXgXgXgXgXgXgXgXgXgXgXgXgX",
"gXgXgXgXgXgXgXgXgXgXgXgXgXgXgXgXgXgXgXgXgXgXgXgXgXgXgXgXgXgXgXgX",
"gXgXgXgXgXgXgXgXgXgXgXgXgXgXgXgXgXgXgXgXgXgXgXgXgXgXgXgXgXgXgXgX",
"gXgXgXgXgXgXgXgXgXgXgXgXgXgXgXgXgXgXgXgXgXgXgXgXgXgXgXgXgXgXgXgX"
};
