/* XPM */
static char *_027ac67a1f94271e6c5294009782eeb[] = {
/* columns rows colors chars-per-pixel */
"64 64 256 2 ",
"   c #682A0B",
".  c #7B3D14",
"X  c #763712",
"o  c #70320D",
"O  c #7B450A",
"+  c #7C4508",
"@  c #7A4716",
"#  c #7B4C22",
"$  c #7C532D",
"%  c #894908",
"&  c #964A0B",
"*  c #8C5208",
"=  c #9C5E05",
"-  c #935706",
";  c #824314",
":  c #844C14",
">  c #8A4B16",
",  c #8C5313",
"<  c #8C581D",
"1  c #945916",
"2  c #A95908",
"3  c #B35F06",
"4  c #9D620B",
"5  c #9F6006",
"6  c #996219",
"7  c #A56607",
"8  c #A2660C",
"9  c #A9690E",
"0  c #B86309",
"q  c #AC6D15",
"w  c #A56917",
"e  c #B86B17",
"r  c #AE7312",
"t  c #A6711B",
"y  c #B27B1D",
"u  c #B67716",
"i  c #875726",
"p  c #87582A",
"a  c #966325",
"s  c #976C38",
"d  c #956B34",
"f  c #A86E26",
"g  c #A97629",
"h  c #B57825",
"j  c #AB732D",
"k  c #C66A07",
"l  c #CB6D06",
"z  c #C4690A",
"x  c #CA6C0A",
"c  c #CE7105",
"v  c #CB780D",
"b  c #D27405",
"n  c #D67B06",
"m  c #DA7D05",
"M  c #D47807",
"N  c #C8741B",
"B  c #CB7C25",
"V  c #926D47",
"C  c #906F51",
"Z  c #A57E54",
"A  c #A17A4D",
"S  c #997E63",
"D  c #BB841A",
"F  c #BC8723",
"G  c #B98537",
"H  c #BF942F",
"J  c #DB8206",
"K  c #DB8409",
"L  c #DE890B",
"P  c #D78008",
"I  c #C4851A",
"U  c #C48B1C",
"Y  c #CA8C1B",
"T  c #CB8816",
"R  c #D58A14",
"E  c #D58B15",
"W  c #CD911C",
"Q  c #CF9A1D",
"!  c #D59316",
"~  c #D3951C",
"^  c #D49D1D",
"/  c #DC9D1C",
"(  c #D8951A",
")  c #E38A06",
"_  c #E28D0B",
"`  c #E18506",
"'  c #E5920E",
"]  c #E9950D",
"[  c #EC9A0D",
"{  c #E59511",
"}  c #EB9B11",
"|  c #E49C16",
" . c #F59916",
".. c #DCA21A",
"X. c #F7A50E",
"o. c #FFB70D",
"O. c #EFA013",
"+. c #E5A51F",
"@. c #E9A71A",
"#. c #F2A413",
"$. c #FAAB15",
"%. c #F5AB1C",
"&. c #F9AC1B",
"*. c #F8A518",
"=. c #E9B61B",
"-. c #FCB21C",
";. c #FEB414",
":. c #C38D25",
">. c #D2882B",
",. c #CA9725",
"<. c #D69824",
"1. c #C69736",
"2. c #D9943A",
"3. c #C38734",
"4. c #E59A30",
"5. c #DEA322",
"6. c #DEAC2C",
"7. c #DBA727",
"8. c #D9A736",
"9. c #DEB629",
"0. c #E5AB23",
"q. c #E3AC2C",
"w. c #E9A922",
"e. c #F0AB20",
"r. c #E3B423",
"t. c #EBB426",
"y. c #E4B42A",
"u. c #E5BB29",
"i. c #EABB2A",
"p. c #F5BE29",
"a. c #F2B825",
"s. c #EAB732",
"d. c #E8AA37",
"f. c #FFC413",
"g. c #FFCC18",
"h. c #FFD41C",
"j. c #FFC00E",
"k. c #ECC32B",
"l. c #EDC82C",
"z. c #FBCB2E",
"x. c #F4C528",
"c. c #FFDA23",
"v. c #FDDB2F",
"b. c #FAD429",
"n. c #ECCC33",
"m. c #E8C739",
"M. c #FCCE33",
"N. c #F5CC3A",
"B. c #F6C937",
"V. c #FCD433",
"C. c #FDDB33",
"Z. c #F9D93B",
"A. c #ECD13C",
"S. c #FEE134",
"D. c #FDE43B",
"F. c #FDE83E",
"G. c #AF8A47",
"H. c #B5914B",
"J. c #A68C72",
"K. c #9F8B76",
"L. c #D99944",
"P. c #C99C44",
"I. c #E39E46",
"U. c #CFA846",
"Y. c #D9A748",
"T. c #D3AE52",
"R. c #E5AC53",
"E. c #E0A757",
"W. c #EAB65D",
"Q. c #E5B24A",
"!. c #D0B063",
"~. c #EABC62",
"^. c #E6B967",
"/. c #F1BE65",
"(. c #F0BE70",
"). c #DEC152",
"_. c #F4CB42",
"`. c #F6DA46",
"'. c #F4DA57",
"]. c #EBCF51",
"[. c #FAE447",
"{. c #FCE452",
"}. c #FDE55D",
"|. c #F7E25A",
" X c #E7C56A",
".X c #F2C369",
"XX c #E8C878",
"oX c #F3C977",
"OX c #F0D46A",
"+X c #FCE967",
"@X c #FDEB75",
"#X c #AC9A8A",
"$X c #AD9F92",
"%X c #B5A698",
"&X c #B4A18D",
"*X c #BEB9B5",
"=X c #BBB2A8",
"-X c #C3B9B1",
";X c #EACC83",
":X c #F2CD82",
">X c #E9D489",
",X c #F3D788",
"<X c #E9D895",
"1X c #F8DA95",
"2X c #FDED85",
"3X c #F8E98B",
"4X c #FFF18C",
"5X c #F8EA95",
"6X c #FEF294",
"7X c #FEF49C",
"8X c #CAC1B9",
"9X c #F2DDA3",
"0X c #F6E5A5",
"qX c #FEF6AC",
"wX c #FFF7A9",
"eX c #EDEABA",
"rX c #EAE5B5",
"tX c #FAEAB8",
"yX c #FCF5B5",
"uX c #FFFAB4",
"iX c #FDF3BB",
"pX c #FFFABC",
"aX c #F5F1B9",
"sX c #E9E2AB",
"dX c #CBCCCD",
"fX c #C8C6C4",
"gX c #D2D3D3",
"hX c #D9DBDD",
"jX c #D9D8D7",
"kX c #D1CFCC",
"lX c #E0DDDB",
"zX c #ECEBC3",
"xX c #FCF5C3",
"cX c #FFFBC4",
"vX c #F5F4CB",
"bX c #FCF5CC",
"nX c #FFFCCC",
"mX c #F2F0C7",
"MX c #FEFDD4",
"NX c #FEFDDB",
"BX c #F5F5D0",
"VX c #F5EFC6",
"CX c #DDDFE0",
"ZX c #DEE1E2",
"AX c #E3E4E5",
"SX c #EBECEC",
"DX c #E5E8EA",
"FX c #FFFEE4",
"GX c #FFFFEB",
"HX c #EDEFF0",
"JX c #EFF1F2",
"KX c #F3F5F5",
"LX c #FFFFF0",
"PX c #F7F8FA",
"IX c #F4F7F8",
"UX c None",
/* pixels */
"UXUXUXUXUXUXUXUXUXUXUXUXUXUXUXUXUXUXUXUXUXUXUXUXUXUXUXUXUXUXUXUXUXUXUXUXUXUXUXUXUXUXUXUXUXUXUXUXUXUXUXUXUXUXUXUXUXUXUXUXUXUXUXUX",
"UXUXUXUXUXUXUXUXUXUXUXUXUXUXUXUXUXUXUXUXUXUXUXUXUXUXUXUXUXUXUXUXUXUXUXUXUXUXUXUXUXUXUXUXUXUXUXUXUXUXUXUXUXUXUXUXUXUXUXUXUXUXUXUX",
"UXUXUXUXUXUXUXUXUXUXUXUXUXUXUXUXUXUXUXUXUXUXUXUXUXUXUXUXUXUXUXUXUXUXUXUXUXUXUXUXUXUXUXUXUXUXUXUXUXUXUXUXUXUXUXUXUXUXUXUXUXUXUXUX",
"UXUXUXUXUXUXUXUXUXUXUXUXUXUXUXUXUXUXUXUXUXUXUXUXUXUXUXUXUXUXUXUXUXUXUXUXUXUXUXUXUXUXUXUXUXUXUXUXUXUXUXUXUXUXUXUXUXUXUXUXUXUXUXUX",
"UXUXUXUXUXUXUXUXUXUXUXUXUXUXUXUXUXUXUXUXUXUXUXUXUXUXUXUXUXUXUXUXUXUXUXUXUXUXUXUXUXUXUXUXUXUXUXUXUXUXUXUXUXUXUXUXUXUXUXUXUXUXUXUX",
"UXUXUXUXUXUXUXUXUXUXUXUXUXUXUXUXUXUXUXUXUXUXUXUXUXUXUXUXUXUXUXUXUXUXUXUXUXUXUXUXUXUXUXUXUXUXUXUXUXUXUXUXUXUXUXUXUXUXUXUXUXUXUXUX",
"UXUXUXUXUXUXUXUXUXUXUXUXUXUXUXUXUXUXUXUXUXUXUXUXUXUXUXUXUXUXUXUXUXUXUXUXUXUXUXUXUXUXUXUXUXUXUXUXUXUXUXUXUXUXUXUXUXUXUXUXUXUXUXUX",
"UXUXUXUXUXUXUXUXUXUXUXUXUXUXUXUXUXUXUXUXUXUXUXUXUXUXUXUXUXUXUXUXUXUXUXUXUXUXUXUXUXUXUXUXUXUXUXUXUXUXUXUXUXUXUXUXUXUXUXUXUXUXUXUX",
"UXUXUXUXUXUXUXUXUXUXUXUXUXUXUXUXUXUXUXUXUXUXUXUXUXUXUXUXUXUXUXUXUXUXUXUXUXUXUXUXUXUXUXUXUXUXUXUXUXUXUXUXUXUXUXUXUXUXUXUXUXUXUXUX",
"UXUXUXUXUXUXUXUXUXUXUXUXUXUXUXUXUXUXUXUXUXUXUXUXUXUXUX%.&.-.-.-.-.-.-.-.%.*.UXUXUXUXUXUXUXUXUXUXUXUXUXUXUXUXUXUXUXUXUXUXUXUXUXUX",
"UXUXUXUXUXUXUXUXUXUXUXUXUXUXUXUXUXUXUXUXUXUXUXUX*.&.o.f.g.h.h.c.c.c.h.g.f.o.;.*. .UXUXUXUXUXUXUXUXUXUXUXUXUXUXUXUXUXUXUXUXUXUXUX",
"UXUXUXUXUXUXUXUXUXUXUXUXUXUXUXUXUXUXUXUXUX .*.;.f.g.v.{.@X6XwXuXuXqXwX4X+X[.c.f.;.$. .UXUXUXN UXUXUXUXUXUXUXUXUXUXUXUXUXUXUXUXUX",
"UXUXUXUXUXUXUXUXUXUXUXUXUXUXUXUX4.2.e UX .o.o.h.{.4XpXNXFXFXGXGXFXGXFXFXNXMXqX@XD.f.o.X. .N R.4.UXUXUXUXUXUXUXUXUXUXUXUXUXUXUXUX",
"UXUXUXUXUXUXUXUXUXUXUXUXUXUXUXUX(.0XI._ o.g.}.wXnXMXMXMXMXNXNXNXFXNXNXNXNXMXMXMXpX4XZ.f.[ R.tXoXUXUXUXUXUXUXUXUXUXUXUXUXUXUXUXUX",
"UXUXUXUXUXUXUXUXUXUXUXUXUXUXUX>.1XFX1X<.B.4XpXcXcXnXnXMXMXMXMXNXMXMXMXMXnXnXnXnXcXcXuXOXd.0XGX9X2.UXUXUXUXUXUXUXUXUXUXUXUXUXUXUX",
"UXUXUXUXUXUXUXUXUXUXUXUXUXUXUX2.tXLXNX(.^.uXpXpXpXpXcXcXnXnXnXnXnXnXnXnXcXcXcXpXpXpXuX^.:XFXLXtXL.UXUXUXUXUXUXUXUXUXUXUXUXUXUXUX",
"UXUXUXUXUXUXUXUXUXUXUXUXUXUXUXL.bXLXLXtXR.1XqXuXuXuXpXyXyXaXVXpXpXiXaXpXpXpXpXuXuXuX,XW.bXLXLXbXL.2 UXUXUXUXUXUXUXUXUXUXUXUXUXUX",
"UXUXUXUXUXUXUXUXUXUXUXUXUXUX3 E.NXLXGXGX1XW.6X5X3X,XoX(.W.R.^.0X0X^.R.~.XXoX,X3X5X5X~.0XGXLXLXMXW.2 UXUXUXUXUXUXUXUXUXUXUXUXUXUX",
"UXUXUXUXUXUXUXUXUXUXUXUXUX0 0 (.FXLXLXGXMXoX~.~./..XoXXX;X~.>.!.!.>.^.;XoXoX.X.X.X.X1XNXGXGXLXFX:X8 3 UXUXUXUXUXUXUXUXUXUXUXUXUX",
"UXUXUXUXUXUXUXUXUXUXUXUX3 3 u 1XFXGXGXGXGXMXiXiXxXnXBXBXrX^.f H.G.f  XrXvXMXBXbXxXcXMXGXGXGXGXGX9Xh = 2 UXUXUXUXUXUXUXUXUXUXUXUX",
"UXUXUXUXUXUXUXUXUXUXUXUXN 2..XiXFXGXGXFXFXFXFXFXNXNXBXeXXXG $ !.!.# G XXeXBXBXNXFXFXFXFXFXGXFXFXbXoXL.B e UXUXUXUXUXUXUXUXUXUXUX",
"UXUXUXUXUXUXUXUX3.L.R./.,XtXbXNXFXFXFXNXFXNXNXNXMXvXeXXX1.@ H.OXOXG.# P.>XaXBXMXMXNXNXFXFXFXFXFXNXMXiX1XoXR.L.B N UXUXUXUXUXUXUX",
"UXUXUXUXUXUXh L.(.<X9XVXbXMXNXNXNXNXNXNXMXMXMXnXcXaXXXU.# d ].|.|.).d < U.>XaXcXnXMXMXMXNXNXNXNXNXNXMXBXVXeX9X;XI.B UXUXUXUXUXUX",
"UXUXUXUXUXUXh Y.<XrXzXzXmXvXBXMXMXMXMXMXnXnXcXpXuX3X).< < Q.|.|.|.'.U.i i Q.3XuXpXcXnXnXnXnXMXMXMXbXvXmXVXeXrX;XY.B UXUXUXUXUXUX",
"UXUXUXUXUXUXUX3.E.XX<XrXeXaXcXcXcXcXcXcXpXyXyXwX2X'.f @ 1.`.{.|.[.|.].H # g ].4XwXuXuXpXpXcXcXcXcXVXaXeXsX<X XE.UXUXUXUXUXUXUXUX",
"UXUXUXUXUXUXUXUXUXG U. X>X0XaXyXpXuXuXuXqXwX6X@X+XA.a g m.`.[.[.[.[.A.m.g 6 A.|.@X6XwXwXuXuXuXuXyXqX0X,X XP.s UXUXUXUXUXUXUXUXUX",
"UXUXUXUXUXUXUXUXUXX @ j R. X,X7X7X7X7X6X3X@X|.{.[.V.,.,.n.D.F.[.[.[.D.A.H :.Z.[.{.+X@X@X3X6X7X6X4X@X].Y.g .   UXUXUXUXUXUXUXUXUX",
"UXUXUXUXUXUXUXUXUX2 & 1 6 ,.'.+X@X+X+X|.|.`.[.Z.Z.z.u.:.m.S.F.F.F.F.D.m.U 0.z.Z.A.`.`.{.|.}.+X+X|._.1.> ; % & UXUXUXUXUXUXUXUXUX",
"UXUXUXUXUXUXUXUXUXc c v e h _.{.{.{.`.A.A.A.n.l.x.a.a.! 7.v.S.S.D.D.S.9.W a.x.x.l.n.n.A.`.`.`.{.`.N.:.& 9 0 0 0 UXUXUXUXUXUXUXUX",
"UXUXUXUXUXUXUXUXUXM ` ) R N B.`.`.Z.l.k.9.r.r.=.=.=.=.+.,.l.S.S.S.S.n.Q / e.=.=.=.r.r.u.k.B.Z.`.`._.,.e R m b x UXUXUXUXUXUXUXUX",
"UXUXUXUXUXUXUXUXUXm ` ] ' Y B.N.z.k.=...^ Q ^ ....| | | W 9.v.S.S.c.k.U ..[ | ..^ ^ Q ^ 7.9.x.N.N.N.<.T ] ) m M UXUXUXUXUXUXUXUX",
"UXUXUXUXUXUXUXUXUXm ` [ { W B.s.t.0./ U : : t U Q ! ! ! W Q l.S.v.v.^ T ! ! ! Q U t : @ D 7.q.i.B.B.8.E  .) m M UXUXUXUXUXUXUXUX",
"UXUXUXUXUXUXUXUXUXm ) [ { ( s.s.+./ U ; o , , , 6 y Y ~ W D k.v.v.l.U U ! U D 6 : ; , ; . F q.q.s.N.d.R [ ) J b UXUXUXUXUXUXUXUX",
"UXUXUXUXUXUXUXUXUXm ) [ { ( s.q.5.:.; X w I U u w 1 < 6 6 w 9.V.v.k.D w 6 1 : 1 q I T r > . h q.q.s.7.R ] ) m b UXUXUXUXUXUXUXUX",
"UXUXUXUXUXUXUXUXUXm ) [ } ( s.6.:.; @ q Y w.t.w.5.Q U y t F u.C.v.k.,.t w y U Q 5.+.+.( u 1 . h 8.s.<.R ] ) m c UXUXUXUXUXUXUXUX",
"UXUXUXUXUXUXUXUXUXm ) [ [ >.8.:.. . e W w.a.p.p.x.k.i.u.9.u.z.C.v.n.u.6.6.t.t.a.a.a.a.t./ u > X f <.>.' ] ` m c UXUXUXUXUXUXUXUX",
"UXUXUXUXUXUXUXUXUXb ` ] X.! r ;     ; 9 I ..t.x.z.z.M.M.M.V.V.V.V.V.V.V.M.M.z.z.x.t.5.T 9 +     > q E } ] K n x UXUXUXUXUXUXUXUX",
"UXUXUXUXUXUXUXUXUXb m ] O.} E u . C C $ @ O * 8 u Y ^ +.r.t.t.i.i.t.r.r.5...W u 8 * + . # C C O u E } [ ] K b UXUXUXUXUXUXUXUXUX",
"UXUXUXUXUXUXUXUXUXx m ) [ X.#.@.1 $XdXfX=X#XS V $ # @ O O O + % + + O O O O @ $ $ S K.%X*XfX$X1 +.*.O.[ ) J c UXUXUXUXUXUXUXUXUX",
"UXUXUXUXUXUXUXUXUXUXb ` [ #.$.&.r S dXgXhXCXCXZXjXkX8X-X%X&X#X#X#X#X&X%X=X8XfXkXhXhXhXjXdXdXS r -.&.#.[ ) n l UXUXUXUXUXUXUXUXUX",
"UXUXUXUXUXUXUXUXUXUXc J ] [ #.;.( p *XgXgXhXZXDXSXJXKXLXKXPXPXPXPXPXPXPXPXIXJXHXDXZXhXgXdX*Xp ! ;.$.#.] L b x UXUXUXUXUXUXUXUXUX",
"UXUXUXUXUXUXUXUXUXUXx b L ] #.$.%.4 V #X*XkXCXZXDXSXSXJXJXKXKXKXKXKXKXKXJXJXHXDXAXhXdX*X$XV 4 a.$.#.O._ m c UXUXUXUXUXUXUXUXUXUX",
"UXUXUXUXUXUXUXUXUXUXUXc P _ [ #.-.! * * < s S &X-XfXjXAXSXSXSXHXSXSXSXAXlXkX8X%XK.A d : * * ! -.$.O.{ L b x UXUXUXUXUXUXUXUXUXUX",
"UXUXUXUXUXUXUXUXUXUXUXx b L ' O.#.%.r - 8 = = - 1 1 a d A A Z Z Z A A s a < 1 * - - = 4 - r %.$.#.] _ m x UXUXUXUXUXUXUXUXUXUXUX",
"UXUXUXUXUXUXUXUXUXUXUXUXl P L { O.%.@.8 4 7 7 7 7 7 7 7 5 5 = 5 = = 7 7 5 7 7 7 8 9 7 5 4 @.&.#.} ' P b x UXUXUXUXUXUXUXUXUXUXUX",
"UXUXUXUXUXUXUXUXUXUXUXUXz c P ' ] O.*...4 = 7 7 7 7 7 7 7 7 7 7 7 7 7 7 7 7 7 7 7 7 4 4 ..&.#.} { L n l UXUXUXUXUXUXUXUXUXUXUXUX",
"UXUXUXUXUXUXUXUXUXUXUXUXUXl b P _ } O.%...8 5 7 7 7 7 7 7 7 9 7 7 7 3 7 7 7 7 7 7 = 8 ..-.O.} { L n l UXUXUXUXUXUXUXUXUXUXUXUXUX",
"UXUXUXUXUXUXUXUXUXUXUXUXUXUXl n P ' } O.%.+.r = 7 7 7 7 7 7 7 7 7 7 7 7 7 7 7 7 = r +.%.O.} { L P b x UXUXUXUXUXUXUXUXUXUXUXUXUX",
"UXUXUXUXUXUXUXUXUXUXUXUXUXUXUXl n K L { O.$.%.Y 8 = 5 7 7 7 7 7 7 7 7 7 7 7 = 8 Y e.*.O.} { L P b x UXUXUXUXUXUXUXUXUXUXUXUXUXUX",
"UXUXUXUXUXUXUXUXUXUXUXUXUXUXUXUXl b K L { { O.%.w.U 9 4 4 = = 5 7 5 = 4 4 9 U w.&.#.} | _ L n b z UXUXUXUXUXUXUXUXUXUXUXUXUXUXUX",
"UXUXUXUXUXUXUXUXUXUXUXUXUXUXUXUXUXl b J L _ { } O.%.e.5.W D y r r u u W / e.%.O.} } _ _ K n c z UXUXUXUXUXUXUXUXUXUXUXUXUXUXUXUX",
"UXUXUXUXUXUXUXUXUXUXUXUXUXUXUXUXUXUXz b n L _ ' ] } } O.*.%.&.%.e.%.%.%.*.} } } { ' L K M l x UXUXUXUXUXUXUXUXUXUXUXUXUXUXUXUXUX",
"UXUXUXUXUXUXUXUXUXUXUXUXUXUXUXUXUXUXUXz k b n L _ _ ' ' ] } } } } } } ] ] ] ' _ L K M c z UXUXUXUXUXUXUXUXUXUXUXUXUXUXUXUXUXUXUX",
"UXUXUXUXUXUXUXUXUXUXUXUXUXUXUXUXUXUXUXUXUXk l c M J L L _ _ ' _ ' ' _ _ L L K m b c k z UXUXUXUXUXUXUXUXUXUXUXUXUXUXUXUXUXUXUXUX",
"UXUXUXUXUXUXUXUXUXUXUXUXUXUXUXUXUXUXUXUXUXUXUXz x l b b n m J K K K J m M b l l z UXUXUXUXUXUXUXUXUXUXUXUXUXUXUXUXUXUXUXUXUXUXUX",
"UXUXUXUXUXUXUXUXUXUXUXUXUXUXUXUXUXUXUXUXUXUXUXUXUXUXz z z k l l k l l z z z z UXUXUXUXUXUXUXUXUXUXUXUXUXUXUXUXUXUXUXUXUXUXUXUXUX",
"UXUXUXUXUXUXUXUXUXUXUXUXUXUXUXUXUXUXUXUXUXUXUXUXUXUXUXUXUXUXUXUXUXUXUXUXUXUXUXUXUXUXUXUXUXUXUXUXUXUXUXUXUXUXUXUXUXUXUXUXUXUXUXUX",
"UXUXUXUXUXUXUXUXUXUXUXUXUXUXUXUXUXUXUXUXUXUXUXUXUXUXUXUXUXUXUXUXUXUXUXUXUXUXUXUXUXUXUXUXUXUXUXUXUXUXUXUXUXUXUXUXUXUXUXUXUXUXUXUX",
"UXUXUXUXUXUXUXUXUXUXUXUXUXUXUXUXUXUXUXUXUXUXUXUXUXUXUXUXUXUXUXUXUXUXUXUXUXUXUXUXUXUXUXUXUXUXUXUXUXUXUXUXUXUXUXUXUXUXUXUXUXUXUXUX",
"UXUXUXUXUXUXUXUXUXUXUXUXUXUXUXUXUXUXUXUXUXUXUXUXUXUXUXUXUXUXUXUXUXUXUXUXUXUXUXUXUXUXUXUXUXUXUXUXUXUXUXUXUXUXUXUXUXUXUXUXUXUXUXUX",
"UXUXUXUXUXUXUXUXUXUXUXUXUXUXUXUXUXUXUXUXUXUXUXUXUXUXUXUXUXUXUXUXUXUXUXUXUXUXUXUXUXUXUXUXUXUXUXUXUXUXUXUXUXUXUXUXUXUXUXUXUXUXUXUX",
"UXUXUXUXUXUXUXUXUXUXUXUXUXUXUXUXUXUXUXUXUXUXUXUXUXUXUXUXUXUXUXUXUXUXUXUXUXUXUXUXUXUXUXUXUXUXUXUXUXUXUXUXUXUXUXUXUXUXUXUXUXUXUXUX",
"UXUXUXUXUXUXUXUXUXUXUXUXUXUXUXUXUXUXUXUXUXUXUXUXUXUXUXUXUXUXUXUXUXUXUXUXUXUXUXUXUXUXUXUXUXUXUXUXUXUXUXUXUXUXUXUXUXUXUXUXUXUXUXUX",
"UXUXUXUXUXUXUXUXUXUXUXUXUXUXUXUXUXUXUXUXUXUXUXUXUXUXUXUXUXUXUXUXUXUXUXUXUXUXUXUXUXUXUXUXUXUXUXUXUXUXUXUXUXUXUXUXUXUXUXUXUXUXUXUX"
};
